<svg width="168" height="61" viewBox="0 0 168 61" fill="none" xmlns="http://www.w3.org/2000/svg">
<path d="M21.1842 24.8196C21.1842 25.2034 20.9987 25.3953 20.6277 25.3953C20.2951 25.3953 19.8666 25.0691 19.3421 24.4167C18.8304 23.7643 18.3187 23.2717 17.807 22.9391C17.2953 22.5938 16.7644 22.3315 16.2144 22.1524C15.3573 21.8582 14.3531 21.7111 13.2018 21.7111C12.0632 21.7111 11.1294 21.839 10.4002 22.0948C9.68384 22.3379 9.04422 22.7153 8.48136 23.227C7.27887 24.3527 6.67763 25.939 6.67763 27.9857C6.67763 30.5826 7.4068 32.687 8.86513 34.2988C10.2467 35.8211 11.9481 36.5822 13.9693 36.5822C16.208 36.5822 17.8838 35.7955 18.9967 34.222C19.3293 33.7359 19.6555 33.4801 19.9753 33.4545C20.3079 33.4161 20.5702 33.4929 20.7621 33.6848C20.9539 33.8766 21.0499 34.1133 21.0499 34.3947C21.0499 34.6762 20.9284 35.028 20.6853 35.4501C20.4423 35.8595 20.1096 36.2624 19.6875 36.659C19.2654 37.0428 18.7792 37.4073 18.2292 37.7527C17.6791 38.0853 17.097 38.3796 16.483 38.6354C13.8734 39.7228 11.1933 39.742 8.44298 38.693C5.75658 37.6696 3.85691 35.8787 2.74397 33.3202C2.1939 32.0409 1.91886 30.8065 1.91886 29.6168C1.91886 28.4143 2.04678 27.3909 2.30263 26.5466C2.55848 25.7023 2.91667 24.8964 3.37719 24.1288C3.85051 23.3613 4.41977 22.6513 5.08498 21.9989C5.76297 21.3465 6.51773 20.7836 7.34923 20.3103C9.12738 19.2997 11.0654 18.7944 13.1634 18.7944C14.6473 18.7944 15.8946 19.0311 16.9052 19.5044C17.097 19.5939 17.2761 19.6387 17.4424 19.6387C17.6087 19.6387 17.8006 19.5939 18.0181 19.5044C18.2356 19.4148 18.4594 19.3189 18.6897 19.2166L19.3037 18.9287C19.5084 18.8392 19.6811 18.7944 19.8218 18.7944C20.244 18.7944 20.455 19.0503 20.455 19.562C20.455 20.0609 20.455 20.5086 20.455 20.9052C20.4678 21.2889 20.4934 21.6535 20.5318 21.9989C20.6086 22.6897 20.7621 23.3421 20.9923 23.9561C21.1202 24.3015 21.1842 24.5894 21.1842 24.8196ZM24.4463 28.6765C24.4463 27.5764 24.7277 26.3995 25.2906 25.1458C25.8662 23.8922 26.6466 22.792 27.6316 21.8454C29.7679 19.8114 32.3712 18.7944 35.4413 18.7944C38.9976 18.7944 41.7544 19.8562 43.7116 21.9797C45.4642 23.8858 46.3405 26.1564 46.3405 28.7917C46.3405 31.9002 45.413 34.4267 43.5581 36.3712C41.6009 38.4307 38.9209 39.4605 35.5181 39.4605C30.6058 39.4605 27.2606 37.6056 25.4825 33.8958C24.7917 32.4503 24.4463 30.7105 24.4463 28.6765ZM29.6272 24.9923C29.3586 25.7215 29.2242 26.6873 29.2242 27.8898C29.2242 29.0923 29.4225 30.25 29.8191 31.3629C30.2284 32.4759 30.7657 33.4161 31.4309 34.1837C32.8253 35.7699 34.4819 36.563 36.4008 36.563C38.7546 36.563 40.3216 35.5333 41.102 33.4737C41.3706 32.7701 41.5049 31.7723 41.5049 30.4803C41.5049 29.1882 41.2939 27.9666 40.8717 26.8152C40.4496 25.6511 39.8995 24.6917 39.2215 23.937C37.8911 22.453 36.2728 21.7111 34.3668 21.7111C32.0002 21.7111 30.4203 22.8048 29.6272 24.9923ZM87.7878 21.2505L86.7133 21.1162C86.1376 21.1162 85.6451 21.3593 85.2357 21.8454C84.4554 22.7537 83.4576 24.4231 82.2423 26.8536L76.2939 38.5779C75.5007 39.9978 74.7204 39.9914 73.9528 38.5587L68.3114 27.909L63.4183 38.5779C63.2392 38.9488 62.977 39.2239 62.6316 39.403C62.299 39.5821 62.0175 39.6716 61.7873 39.6716C61.4291 39.6716 61.0581 39.3006 60.6743 38.5587L53.3059 24.9731C52.0906 22.7728 51.1824 21.5384 50.5811 21.2697C50.3765 21.1674 50.1782 21.1162 49.9863 21.1162L48.9117 21.2505C48.6943 21.2505 48.5152 21.161 48.3745 20.9819C48.2465 20.8028 48.1826 20.6045 48.1826 20.3871C48.1826 20.1696 48.3361 19.9265 48.6431 19.6579C48.9501 19.3893 49.3531 19.2549 49.852 19.2549C50.6067 19.2549 51.2783 19.2933 51.8668 19.3701L52.4041 19.4468C52.8774 19.5236 53.3955 19.562 53.9583 19.562C54.5212 19.562 55.1224 19.5108 55.7621 19.4084C56.4017 19.3061 56.9901 19.2549 57.5274 19.2549C58.0775 19.2549 58.474 19.2997 58.7171 19.3893C58.9602 19.466 59.152 19.5683 59.2928 19.6963C59.5614 19.9265 59.6957 20.1504 59.6957 20.3679C59.6957 20.9563 59.4591 21.2505 58.9857 21.2505L57.489 21.0779C57.2076 21.0779 57.0221 21.129 56.9326 21.2314C56.8558 21.3209 56.8174 21.4616 56.8174 21.6535C56.8174 22.0117 57.1053 22.6897 57.6809 23.6875L62.5164 32.4183C62.6572 32.6742 62.7531 32.8533 62.8043 32.9556C62.8682 33.0451 62.9514 33.0899 63.0537 33.0899C63.2072 33.0899 63.4183 32.8149 63.6869 32.2648L67.0641 24.8388C66.2582 23.2781 65.6698 22.3059 65.2988 21.9221C64.9278 21.5256 64.64 21.2953 64.4353 21.2314C64.2306 21.1546 64.0259 21.1162 63.8213 21.1162C63.8213 21.1162 63.4631 21.161 62.7467 21.2505C62.5292 21.2505 62.3501 21.161 62.2094 20.9819C62.0815 20.8028 62.0175 20.6045 62.0175 20.3871C62.0175 20.1696 62.1711 19.9265 62.4781 19.6579C62.7979 19.3893 63.2008 19.2549 63.6869 19.2549C64.1859 19.2549 64.5504 19.2677 64.7807 19.2933C65.011 19.3189 65.2668 19.3445 65.5482 19.3701L66.0663 19.4276C66.3222 19.4532 66.5652 19.4852 66.7955 19.5236C67.0386 19.5492 67.3008 19.562 67.5822 19.562C68.0428 19.562 68.5672 19.5236 69.1557 19.4468L69.6546 19.3893C71.4583 19.1974 72.5521 19.1718 72.9359 19.3125C73.3324 19.4404 73.6075 19.5683 73.761 19.6963C74.0296 19.9393 74.1639 20.1696 74.1639 20.3871C74.1639 20.6045 74.1 20.8028 73.972 20.9819C73.8569 21.161 73.6842 21.2505 73.4539 21.2505L71.9572 21.0779C71.1897 21.0779 70.8059 21.4041 70.8059 22.0565C70.8059 22.3251 70.8763 22.581 71.017 22.824L71.4967 23.6875L75.6798 32.284C75.9357 32.8213 76.1531 33.0899 76.3322 33.0899C76.4857 33.0899 76.7032 32.8149 76.9846 32.2648L80.0356 25.8174C80.7392 24.4103 81.1166 23.4892 81.1678 23.0543C81.2189 22.6065 81.2445 22.2675 81.2445 22.0373C81.2445 21.3977 80.7904 21.0779 79.8821 21.0779L78.1168 21.2505C77.9249 21.2505 77.7586 21.161 77.6179 20.9819C77.4772 20.8028 77.4068 20.6365 77.4068 20.483C77.4068 20.3295 77.4388 20.1824 77.5027 20.0417C77.5795 19.8882 77.6946 19.7538 77.8481 19.6387C78.1935 19.3829 78.6668 19.2549 79.2681 19.2549L83.8158 19.562C84.1356 19.562 84.5066 19.53 84.9287 19.466C85.7346 19.3253 86.3679 19.2549 86.8284 19.2549C87.2889 19.2549 87.6855 19.3829 88.0181 19.6387C88.3507 19.8818 88.517 20.1248 88.517 20.3679C88.517 20.5981 88.4466 20.8028 88.3059 20.9819C88.178 21.161 88.0053 21.2505 87.7878 21.2505ZM90.3783 39.5948C89.9306 39.5948 89.7067 39.3838 89.7067 38.9616C89.7067 38.693 89.873 38.4307 90.2056 38.1749C90.5382 37.9063 90.7621 37.6824 90.8772 37.5033C90.9923 37.3114 91.0819 37.0428 91.1458 36.6974C91.261 36.0961 91.3185 34.9448 91.3185 33.2434V13.1338C91.3185 10.9207 91.165 9.5583 90.858 9.0466C90.551 8.52211 90.1864 8.17672 89.7643 8.01042C89.3421 7.84412 88.888 7.73538 88.4019 7.68421C87.4552 7.60746 86.9819 7.28765 86.9819 6.72478C86.9819 6.54569 87.0842 6.3538 87.2889 6.14912C87.4936 5.94445 87.7686 5.84211 88.114 5.84211C88.4594 5.84211 88.7664 5.8549 89.0351 5.88048L89.8218 5.95724C90.6277 6.03399 91.2226 6.07237 91.6064 6.07237C92.553 6.07237 93.2566 6.0276 93.7171 5.93805C94.1904 5.8485 94.5294 5.80373 94.7341 5.80373C94.9388 5.80373 95.1243 5.82931 95.2906 5.88048C95.4569 5.91886 95.5848 6.0212 95.6743 6.1875C95.8151 6.49452 95.8854 7.1981 95.8854 8.29825V20.6749C97.3693 19.4212 99.3394 18.7944 101.796 18.7944C104.93 18.7944 107.443 19.7091 109.337 21.5384C111.268 23.3805 112.234 25.8046 112.234 28.8109C112.234 31.7787 111.217 34.2924 109.183 36.352C107.136 38.4243 104.565 39.4605 101.469 39.4605C100.369 39.4605 99.3202 39.3326 98.3224 39.0768L96.1732 38.5203C95.7255 38.4052 95.3481 38.3476 95.0411 38.3476C94.7341 38.3476 94.3951 38.4052 94.0241 38.5203L92.6809 38.9616C91.4528 39.3838 90.6853 39.5948 90.3783 39.5948ZM95.8854 34.0685C96.7041 35.7443 98.2328 36.5822 100.471 36.5822C102.685 36.5822 104.399 35.9938 105.614 34.8169C106.829 33.6656 107.437 32.0409 107.437 29.943C107.437 27.167 106.765 25.0691 105.422 23.6491C104.194 22.3443 102.537 21.6919 100.452 21.6919C98.994 21.6919 97.7467 22.1652 96.7105 23.1118C96.3651 23.4444 96.0901 23.841 95.8854 24.3015V34.0685ZM115.707 28.6765C115.707 27.5764 115.989 26.3995 116.552 25.1458C117.127 23.8922 117.908 22.792 118.893 21.8454C121.029 19.8114 123.632 18.7944 126.702 18.7944C130.259 18.7944 133.015 19.8562 134.973 21.9797C136.725 23.8858 137.601 26.1564 137.601 28.7917C137.601 31.9002 136.674 34.4267 134.819 36.3712C132.862 38.4307 130.182 39.4605 126.779 39.4605C121.867 39.4605 118.522 37.6056 116.743 33.8958C116.053 32.4503 115.707 30.7105 115.707 28.6765ZM120.888 24.9923C120.62 25.7215 120.485 26.6873 120.485 27.8898C120.485 29.0923 120.683 30.25 121.08 31.3629C121.489 32.4759 122.027 33.4161 122.692 34.1837C124.086 35.7699 125.743 36.563 127.662 36.563C130.016 36.563 131.583 35.5333 132.363 33.4737C132.632 32.7701 132.766 31.7723 132.766 30.4803C132.766 29.1882 132.555 27.9666 132.133 26.8152C131.711 25.6511 131.16 24.6917 130.482 23.937C129.152 22.453 127.534 21.7111 125.628 21.7111C123.261 21.7111 121.681 22.8048 120.888 24.9923ZM165.099 21.2505L164.024 21.097C163.154 21.097 162.246 22.1012 161.299 24.1096L153.509 41.6096C151.615 45.5369 149.761 47.8268 147.944 48.4792C147.42 48.6583 146.857 48.7478 146.255 48.7478C145.667 48.7478 145.085 48.6583 144.509 48.4792C143.946 48.3001 143.467 48.057 143.07 47.75C142.264 47.1104 141.861 46.3364 141.861 45.4282C141.861 44.7118 142.13 44.1809 142.667 43.8355C142.821 43.746 143.038 43.7012 143.32 43.7012C143.946 43.7012 144.465 44.0786 144.874 44.8333C145.27 45.5497 145.718 45.9719 146.217 46.0998C146.396 46.1382 146.626 46.1573 146.908 46.1573C147.189 46.1573 147.49 46.0742 147.81 45.9079C148.142 45.7544 148.507 45.4474 148.904 44.9868C149.697 44.0786 150.688 42.4156 151.878 39.9978V39.9786L144.624 24.9731C143.524 22.7728 142.584 21.5256 141.804 21.2314C141.586 21.1546 141.375 21.1162 141.171 21.1162L140.096 21.2505C139.878 21.2505 139.699 21.161 139.559 20.9819C139.431 20.8028 139.367 20.6045 139.367 20.3871C139.367 20.1696 139.52 19.9265 139.827 19.6579C140.134 19.3893 140.608 19.2549 141.247 19.2549L145.066 19.562C145.821 19.562 146.646 19.5108 147.541 19.4084C148.437 19.3061 149.198 19.2549 149.825 19.2549C150.451 19.2549 150.886 19.2997 151.129 19.3893C151.372 19.466 151.564 19.5683 151.705 19.6963C151.974 19.9265 152.108 20.1504 152.108 20.3679C152.108 20.9563 151.865 21.2505 151.379 21.2505L149.921 21.0779C149.051 21.0779 148.616 21.4041 148.616 22.0565C148.616 22.2995 148.712 22.6513 148.904 23.1118L154.027 34.625C156.726 27.8322 158.159 24.244 158.325 23.8602C158.491 23.4636 158.613 23.1502 158.69 22.92C158.856 22.4594 158.939 22.1012 158.939 21.8454C158.939 21.3337 158.568 21.0779 157.826 21.0779L156.234 21.2505C156.016 21.2505 155.837 21.161 155.696 20.9819C155.568 20.8028 155.504 20.5981 155.504 20.3679C155.504 20.1376 155.651 19.8946 155.946 19.6387C156.24 19.3829 156.72 19.2549 157.385 19.2549C158.063 19.2549 158.709 19.3061 159.323 19.4084C159.95 19.5108 160.525 19.562 161.05 19.562C161.574 19.562 162.067 19.5108 162.527 19.4084C163.001 19.3061 163.519 19.2549 164.082 19.2549C164.657 19.2549 165.092 19.3893 165.387 19.6579C165.681 19.9265 165.828 20.1696 165.828 20.3871C165.828 20.6045 165.757 20.8028 165.617 20.9819C165.476 21.161 165.303 21.2505 165.099 21.2505Z" fill="#4F4F4F"/>
<path d="M55.985 52.9595C55.7934 52.9595 55.6313 52.8932 55.4987 52.7605C55.366 52.6279 55.2997 52.4658 55.2997 52.2742C55.2997 52.0826 55.366 51.9205 55.4987 51.7879C55.6313 51.6553 55.7934 51.5889 55.985 51.5889C56.1692 51.5889 56.3239 51.6553 56.4492 51.7879C56.5818 51.9205 56.6481 52.0826 56.6481 52.2742C56.6481 52.4658 56.5818 52.6279 56.4492 52.7605C56.3239 52.8932 56.1692 52.9595 55.985 52.9595ZM56.4713 53.9432V60H55.4655V53.9432H56.4713ZM61.1366 53.8326C61.8734 53.8326 62.4702 54.0574 62.9271 54.5068C63.3839 54.9489 63.6123 55.59 63.6123 56.43V60H62.6176V56.5737C62.6176 55.9695 62.4666 55.5089 62.1644 55.1921C61.8623 54.8679 61.4497 54.7058 60.9266 54.7058C60.396 54.7058 59.9723 54.8716 59.6555 55.2032C59.346 55.5347 59.1913 56.0174 59.1913 56.6511V60H58.1855V53.9432H59.1913V54.8053C59.3902 54.4958 59.6592 54.2563 59.9981 54.0868C60.3444 53.9174 60.7239 53.8326 61.1366 53.8326ZM66.4821 54.7721V58.3421C66.4821 58.6368 66.5448 58.8468 66.67 58.9721C66.7953 59.09 67.0127 59.1489 67.3221 59.1489H68.0627V60H67.1564C66.5964 60 66.1764 59.8711 65.8964 59.6132C65.6164 59.3553 65.4764 58.9316 65.4764 58.3421V54.7721H64.6916V53.9432H65.4764V52.4179H66.4821V53.9432H68.0627V54.7721H66.4821ZM74.8076 56.7395C74.8076 56.9311 74.7966 57.1337 74.7745 57.3474H69.9334C69.9703 57.9442 70.1729 58.4121 70.5413 58.7511C70.9171 59.0826 71.3703 59.2484 71.9008 59.2484C72.3355 59.2484 72.6966 59.1489 72.9839 58.95C73.2787 58.7437 73.485 58.4711 73.6029 58.1321H74.686C74.5239 58.7142 74.1997 59.1895 73.7134 59.5579C73.2271 59.9189 72.6229 60.0995 71.9008 60.0995C71.326 60.0995 70.8103 59.9705 70.3534 59.7126C69.9039 59.4547 69.5503 59.09 69.2924 58.6184C69.0345 58.1395 68.9055 57.5868 68.9055 56.9605C68.9055 56.3342 69.0308 55.7853 69.2813 55.3137C69.5318 54.8421 69.8818 54.4811 70.3313 54.2305C70.7881 53.9726 71.3113 53.8437 71.9008 53.8437C72.4755 53.8437 72.9839 53.9689 73.426 54.2195C73.8681 54.47 74.2071 54.8163 74.4429 55.2584C74.686 55.6932 74.8076 56.1868 74.8076 56.7395ZM73.7687 56.5295C73.7687 56.1463 73.6839 55.8184 73.5145 55.5458C73.345 55.2658 73.1129 55.0558 72.8181 54.9158C72.5308 54.7684 72.2103 54.6947 71.8566 54.6947C71.3481 54.6947 70.9134 54.8568 70.5524 55.1811C70.1987 55.5053 69.996 55.9547 69.9445 56.5295H73.7687ZM77.141 54.9268C77.3179 54.5805 77.5684 54.3116 77.8926 54.12C78.2242 53.9284 78.6258 53.8326 79.0973 53.8326V54.8716H78.8321C77.7047 54.8716 77.141 55.4832 77.141 56.7063V60H76.1352V53.9432H77.141V54.9268ZM79.8826 56.9495C79.8826 56.3305 80.0079 55.7889 80.2584 55.3247C80.5089 54.8532 80.8515 54.4884 81.2863 54.2305C81.7284 53.9726 82.2184 53.8437 82.7563 53.8437C83.2868 53.8437 83.7473 53.9579 84.1379 54.1863C84.5284 54.4147 84.8194 54.7021 85.011 55.0484V53.9432H86.0279V60H85.011V58.8726C84.8121 59.2263 84.5136 59.5211 84.1158 59.7568C83.7252 59.9853 83.2684 60.0995 82.7452 60.0995C82.2073 60.0995 81.721 59.9668 81.2863 59.7016C80.8515 59.4363 80.5089 59.0642 80.2584 58.5853C80.0079 58.1063 79.8826 57.5611 79.8826 56.9495ZM85.011 56.9605C85.011 56.5037 84.9189 56.1058 84.7347 55.7668C84.5505 55.4279 84.3 55.17 83.9831 54.9932C83.6736 54.8089 83.331 54.7168 82.9552 54.7168C82.5794 54.7168 82.2368 54.8053 81.9273 54.9821C81.6179 55.1589 81.371 55.4168 81.1868 55.7558C81.0026 56.0947 80.9105 56.4926 80.9105 56.9495C80.9105 57.4137 81.0026 57.8189 81.1868 58.1653C81.371 58.5042 81.6179 58.7658 81.9273 58.95C82.2368 59.1268 82.5794 59.2153 82.9552 59.2153C83.331 59.2153 83.6736 59.1268 83.9831 58.95C84.3 58.7658 84.5505 58.5042 84.7347 58.1653C84.9189 57.8189 85.011 57.4174 85.011 56.9605ZM87.3518 56.9605C87.3518 56.3342 87.477 55.7889 87.7275 55.3247C87.9781 54.8532 88.3244 54.4884 88.7665 54.2305C89.216 53.9726 89.7281 53.8437 90.3028 53.8437C91.047 53.8437 91.6586 54.0242 92.1375 54.3853C92.6239 54.7463 92.9444 55.2474 93.0991 55.8884H92.016C91.9128 55.52 91.7102 55.2289 91.4081 55.0153C91.1133 54.8016 90.7449 54.6947 90.3028 54.6947C89.7281 54.6947 89.2639 54.8937 88.9102 55.2916C88.5565 55.6821 88.3796 56.2384 88.3796 56.9605C88.3796 57.69 88.5565 58.2537 88.9102 58.6516C89.2639 59.0495 89.7281 59.2484 90.3028 59.2484C90.7449 59.2484 91.1133 59.1453 91.4081 58.9389C91.7028 58.7326 91.9054 58.4379 92.016 58.0547H93.0991C92.937 58.6737 92.6128 59.1711 92.1265 59.5468C91.6402 59.9153 91.0323 60.0995 90.3028 60.0995C89.7281 60.0995 89.216 59.9705 88.7665 59.7126C88.3244 59.4547 87.9781 59.09 87.7275 58.6184C87.477 58.1468 87.3518 57.5942 87.3518 56.9605ZM95.668 54.7721V58.3421C95.668 58.6368 95.7306 58.8468 95.8559 58.9721C95.9812 59.09 96.1985 59.1489 96.508 59.1489H97.2485V60H96.3422C95.7822 60 95.3622 59.8711 95.0822 59.6132C94.8022 59.3553 94.6622 58.9316 94.6622 58.3421V54.7721H93.8775V53.9432H94.6622V52.4179H95.668V53.9432H97.2485V54.7721H95.668ZM98.9866 52.9595C98.7951 52.9595 98.633 52.8932 98.5003 52.7605C98.3677 52.6279 98.3014 52.4658 98.3014 52.2742C98.3014 52.0826 98.3677 51.9205 98.5003 51.7879C98.633 51.6553 98.7951 51.5889 98.9866 51.5889C99.1708 51.5889 99.3256 51.6553 99.4508 51.7879C99.5835 51.9205 99.6498 52.0826 99.6498 52.2742C99.6498 52.4658 99.5835 52.6279 99.4508 52.7605C99.3256 52.8932 99.1708 52.9595 98.9866 52.9595ZM99.473 53.9432V60H98.4672V53.9432H99.473ZM103.442 59.0716L105.321 53.9432H106.393L104.017 60H102.845L100.469 53.9432H101.552L103.442 59.0716ZM112.909 56.7395C112.909 56.9311 112.898 57.1337 112.876 57.3474H108.035C108.072 57.9442 108.274 58.4121 108.643 58.7511C109.018 59.0826 109.472 59.2484 110.002 59.2484C110.437 59.2484 110.798 59.1489 111.085 58.95C111.38 58.7437 111.586 58.4711 111.704 58.1321H112.787C112.625 58.7142 112.301 59.1895 111.815 59.5579C111.328 59.9189 110.724 60.0995 110.002 60.0995C109.427 60.0995 108.912 59.9705 108.455 59.7126C108.005 59.4547 107.652 59.09 107.394 58.6184C107.136 58.1395 107.007 57.5868 107.007 56.9605C107.007 56.3342 107.132 55.7853 107.383 55.3137C107.633 54.8421 107.983 54.4811 108.433 54.2305C108.89 53.9726 109.413 53.8437 110.002 53.8437C110.577 53.8437 111.085 53.9689 111.527 54.2195C111.97 54.47 112.308 54.8163 112.544 55.2584C112.787 55.6932 112.909 56.1868 112.909 56.7395ZM111.87 56.5295C111.87 56.1463 111.785 55.8184 111.616 55.5458C111.446 55.2658 111.214 55.0558 110.92 54.9158C110.632 54.7684 110.312 54.6947 109.958 54.6947C109.45 54.6947 109.015 54.8568 108.654 55.1811C108.3 55.5053 108.097 55.9547 108.046 56.5295H111.87Z" fill="#4F4F4F"/>
</svg>
