<svg width="61" height="59" viewBox="0 0 61 59" fill="none" xmlns="http://www.w3.org/2000/svg">
<path d="M60.1319 22.2275C55.1015 20.3839 51.5098 15.5297 51.5098 9.83116C51.5098 9.02576 51.5817 8.2377 51.7196 7.47278C48.1639 4.00679 43.7745 1.40404 38.8806 0C34.7916 3.42695 28.8587 4.1268 23.9705 1.3086C23.3008 0.92253 22.677 0.484401 22.1021 0.00578388C17.158 1.42717 12.7283 4.07475 9.15532 7.59714C10.1082 12.8706 7.78705 18.4173 2.93488 21.3078C2.25793 21.7113 1.55942 22.0467 0.846544 22.3157C0.294637 24.6249 0 27.0339 0 29.5123C0 32.0196 0.300386 34.4546 0.865228 36.787C5.86831 38.6451 9.43702 43.4847 9.43702 49.1645C9.43702 49.9627 9.36659 50.7435 9.23149 51.5026C12.76 54.9571 17.1163 57.5598 21.9728 58.9812C26.0646 55.4863 32.0522 54.7532 36.9777 57.5931C37.6963 58.0066 38.3604 58.4795 38.9683 59C43.8665 57.5786 48.2559 54.9556 51.8059 51.4694C50.8199 46.1757 53.1411 40.5928 58.0134 37.6893C58.7119 37.2728 59.4334 36.9301 60.1678 36.6568C60.7111 34.365 61 31.9733 61 29.5137C60.9986 27.0021 60.6967 24.5627 60.1319 22.2275ZM33.9077 10.1435C35.7187 6.96236 39.7502 5.86197 42.9107 7.6839C46.0727 9.50582 47.1664 13.5618 45.3555 16.7415C43.5445 19.9226 39.513 21.023 36.3525 19.2011C33.1905 17.3791 32.0968 13.3232 33.9077 10.1435ZM17.8018 7.81837C20.9408 5.95885 24.9853 7.01152 26.8336 10.171C28.6819 13.329 27.6356 17.3979 24.4951 19.2575C21.3547 21.117 17.3117 20.0643 15.4634 16.9049C13.6166 13.7454 14.6629 9.67789 17.8018 7.81837ZM5.50181 29.4834C5.50181 25.8178 8.45537 22.8464 12.0988 22.8464C15.7423 22.8464 18.6958 25.8178 18.6958 29.4834C18.6958 33.1489 15.7423 36.1204 12.0988 36.1204C8.45537 36.1204 5.50181 33.1489 5.50181 29.4834ZM27.0362 48.8522C25.2253 52.0333 21.1938 53.1337 18.0332 51.3118C14.8727 49.4898 13.7775 45.4339 15.5885 42.2542C17.3994 39.0731 21.4309 37.9727 24.5914 39.7946C27.752 41.6165 28.8472 45.6725 27.0362 48.8522ZM30.4986 32.7469C28.6891 32.7469 27.2216 31.2706 27.2216 29.4501C27.2216 27.6296 28.6891 26.1533 30.4986 26.1533C32.3081 26.1533 33.7755 27.6296 33.7755 29.4501C33.7755 31.2706 32.3081 32.7469 30.4986 32.7469ZM43.1407 51.1773C40.0017 53.0368 35.9573 51.9841 34.109 48.8247C32.2606 45.6652 33.307 41.5977 36.4474 39.7382C39.5863 37.8787 43.6308 38.9314 45.4791 42.0908C47.3274 45.2503 46.2811 49.3178 43.1407 51.1773ZM48.8997 36.1493C45.2563 36.1493 42.3027 33.1778 42.3027 29.5123C42.3027 25.8468 45.2563 22.8753 48.8997 22.8753C52.5432 22.8753 55.4968 25.8468 55.4968 29.5123C55.4968 33.1778 52.5432 36.1493 48.8997 36.1493Z" fill="#4F4F4F"/>
</svg>
